<?xml version="1.0" standalone="no"?><!DOCTYPE svg PUBLIC "-//W3C//DTD SVG 1.1//EN" "http://www.w3.org/Graphics/SVG/1.1/DTD/svg11.dtd"><svg t="1713540051264" class="icon" viewBox="0 0 1024 1024" version="1.1" xmlns="http://www.w3.org/2000/svg" p-id="3163" xmlns:xlink="http://www.w3.org/1999/xlink" width="200" height="200"><path d="M845.803 544.168H178.197c-27.57 0-50-22.43-50-50v-135.83c0-27.57 22.43-50 50-50h667.606c27.57 0 50 22.43 50 50v135.83c0 27.571-22.429 50-50 50z m-657.606-60h647.606v-115.83H188.197v115.83z" p-id="3164"></path><path d="M791.839 887.245H232.161c-28.365 0-51.442-23.077-51.442-51.442V531.318h60v295.928h542.563V531.318h60v304.485c0 28.365-23.077 51.442-51.443 51.442z" p-id="3165"></path><path d="M482 338.338h60v500.448h-60z" p-id="3166"></path><path d="M590.422 362.704c-3.691 0-7.454-0.062-11.305-0.188-35.645-1.165-66.004-7.301-67.278-7.561l-19.416-3.969-3.969-19.416c-0.261-1.274-6.396-31.635-7.561-67.278-1.735-53.102 8.518-91.159 30.474-113.115 24.154-24.155 56.272-37.458 90.433-37.458s66.277 13.303 90.433 37.459c49.864 49.864 49.864 131 0.001 180.865l-0.001 0.001c-20.364 20.363-54.588 30.66-101.811 30.66z m-46.417-63.313c10.332 1.371 23.703 2.754 37.841 3.181 49.522 1.492 64.543-9.538 67.961-12.956 26.47-26.471 26.47-69.542 0-96.013-12.823-12.823-29.873-19.885-48.007-19.885-18.135 0-35.184 7.062-48.006 19.885-3.449 3.448-14.571 18.594-12.933 68.729 0.456 13.919 1.805 26.956 3.144 37.059z" p-id="3167"></path><path d="M433.578 362.704c-47.228 0-81.445-10.296-101.811-30.66l-0.001-0.001c-49.863-49.865-49.863-131.001 0.001-180.865 24.155-24.156 56.271-37.459 90.433-37.459s66.278 13.303 90.434 37.459c21.955 21.955 32.208 60.013 30.473 113.114-1.165 35.644-7.301 66.004-7.561 67.278l-3.969 19.416-19.416 3.969c-1.274 0.26-31.635 6.396-67.278 7.561a348.3 348.3 0 0 1-11.305 0.188z m-59.385-73.088c3.448 3.448 18.602 14.569 68.729 12.932 13.92-0.455 26.957-1.804 37.06-3.144 1.371-10.332 2.754-23.702 3.181-37.841 1.496-49.541-9.538-64.542-12.956-67.959-12.823-12.824-29.872-19.886-48.007-19.886-18.134 0-35.184 7.062-48.007 19.885-26.471 26.471-26.47 69.542 0 96.013z" p-id="3168"></path></svg>